<svg xmlns="http://www.w3.org/2000/svg" fill="none" viewBox="0 0 128 128">
    <path d="M38.8906 83.0781C40.5469 83.0781 42.1719 82.875 43.7656 82.4688C45.3906 82.0312 46.8281 81.4062 48.0781 80.5938C49.3594 79.75 50.3906 78.7344 51.1719 77.5469C51.9531 76.3281 52.3438 74.9219 52.3438 73.3281C52.3438 71.6094 51.8906 70.0469 50.9844 68.6406C50.0781 67.2344 48.875 65.9375 47.375 64.75C45.875 63.5312 44.1406 62.3906 42.1719 61.3281C40.2344 60.2344 38.2344 59.1562 36.1719 58.0938C33.9844 56.9688 31.8125 55.8125 29.6562 54.625C27.5312 53.4062 25.6094 52.0469 23.8906 50.5469C22.2031 49.0156 20.8281 47.2969 19.7656 45.3906C18.7344 43.4531 18.2188 41.2031 18.2188 38.6406C18.2188 36.2656 18.6406 34.0625 19.4844 32.0312C20.3281 30 21.5625 28.25 23.1875 26.7812C24.8438 25.2812 26.875 24.1094 29.2812 23.2656C31.6875 22.4219 34.4375 22 37.5312 22C40.3125 22 42.7969 22.3125 44.9844 22.9375C47.2031 23.5625 49.1406 24.5 50.7969 25.75C52.4844 26.9688 53.9219 28.4844 55.1094 30.2969C56.2969 32.1094 57.2812 34.2031 58.0625 36.5781L54.3125 38.3125C53.7188 36.5 52.9219 34.8438 51.9219 33.3438C50.9531 31.8125 49.7656 30.5156 48.3594 29.4531C46.9531 28.3594 45.3125 27.5156 43.4375 26.9219C41.5625 26.3281 39.4375 26.0312 37.0625 26.0312C34.9375 26.0312 33.0781 26.3125 31.4844 26.875C29.8906 27.4062 28.5625 28.125 27.5 29.0312C26.4688 29.9062 25.6875 30.9062 25.1562 32.0312C24.625 33.125 24.3594 34.25 24.3594 35.4062C24.3594 36.8125 24.8125 38.1562 25.7188 39.4375C26.6562 40.6875 27.875 41.8906 29.375 43.0469C30.9062 44.2031 32.6406 45.3281 34.5781 46.4219C36.5156 47.4844 38.5 48.5469 40.5312 49.6094C42.7812 50.7656 45.0312 52 47.2812 53.3125C49.5312 54.5938 51.5625 56.0312 53.375 57.625C55.1875 59.1875 56.6562 60.9219 57.7812 62.8281C58.9375 64.7031 59.5156 66.8125 59.5156 69.1562C59.5156 71.625 59.0625 73.9531 58.1562 76.1406C57.25 78.2969 55.9062 80.1875 54.125 81.8125C52.3438 83.4062 50.1094 84.6719 47.4219 85.6094C44.7656 86.5469 41.6719 87.0156 38.1406 87.0156C35.3281 87.0156 32.7969 86.6875 30.5469 86.0312C28.2969 85.375 26.2969 84.4219 24.5469 83.1719C22.8281 81.8906 21.3438 80.3438 20.0938 78.5312C18.875 76.6875 17.8438 74.5938 17 72.25L20.9844 70.6094C21.6094 72.5781 22.4844 74.3281 23.6094 75.8594C24.7656 77.3906 26.1094 78.7031 27.6406 79.7969C29.1719 80.8594 30.8906 81.6719 32.7969 82.2344C34.7031 82.7969 36.7344 83.0781 38.8906 83.0781Z"/>
    <path d="M82.25 43.0469L96.875 74.8281L111.5 106.609H102.547L93.0781 85.8906H65.5625L55.8594 106.609H50.7969L80.5156 43.0469H82.25ZM67.4844 81.8594H91.1562L79.25 56.5938L67.4844 81.8594Z"/>
    <style>
        path { fill: #000; }
        @media (prefers-color-scheme: dark) {
            path { fill: #FFF; }
        }
    </style>
</svg>
